<svg xmlns="http://www.w3.org/2000/svg" viewBox="0 0 18 18"><title>Profile_18x18</title><g id="Origination"><g id="New_Symbol_22" data-name="New Symbol 22"><g id="New_Symbol_16-2" data-name="New Symbol 16"><path style="fill: #d3d3d3;" d="M12.12,5.4a2.9,2.9,0,0,0-.3-2.87,2.88,2.88,0,0,0-1.47-.89l-.12-.09.06.07-.19,0-.19-.18a2,2,0,0,1,.14.17l-.08,0a1.4,1.4,0,0,0-.18-.22,1.31,1.31,0,0,1,.07.15C9.67,1.33,9.29,1,9.29.64A1.06,1.06,0,0,0,8.91,1,1,1,0,0,1,9.21.5,1.11,1.11,0,0,0,8.9.76a1,1,0,0,0-.46.56l-.08,0A1.38,1.38,0,0,1,8.54,1a1.45,1.45,0,0,0-.21.26l-.17-.09a1.36,1.36,0,0,1,.2-.28,1.32,1.32,0,0,0-.18.18c0-.11,0-.23-.32.14a3.84,3.84,0,0,0-2,2s-.26.37.09,2.18c-.48-.23-.16,1.2-.16,1.2a.74.74,0,0,0,.26.52A4.42,4.42,0,0,0,7.52,9.8a2.23,2.23,0,0,0,1.41.62,2.43,2.43,0,0,0,1.53-.63A4.48,4.48,0,0,0,12,7.14a.71.71,0,0,0,.26-.52S12.53,5.28,12.12,5.4ZM8.86.82a1,1,0,0,0-.17.39l-.05,0A.88.88,0,0,1,8.86.82Z"/><path style="fill: #d3d3d3;" d="M9.19,17.5a23,23,0,0,0,6.67-1.37s.37-.09.38-.94A7.47,7.47,0,0,0,15,12a2.52,2.52,0,0,0-1.09-.73A21,21,0,0,1,11.35,10h0a2.67,2.67,0,0,1-1,.83,3.32,3.32,0,0,1-1.19.46H8.81a3.32,3.32,0,0,1-1.19-.46,2.67,2.67,0,0,1-1-.83h0A21,21,0,0,1,4.1,11.27,2.52,2.52,0,0,0,3,12a7.47,7.47,0,0,0-1.26,3.2c0,.85.38.94.38.94A23,23,0,0,0,8.81,17.5Z"/></g></g></g></svg>